<?xml version="1.0" encoding="UTF-8" standalone="no"?>
<svg
   width="210mm"
   height="297mm"
   viewBox="0 0 210 297"
   version="1.1"
   id="svg8"
   inkscape:version="1.1.1 (3bf5ae0d25, 2021-09-20)"
   sodipodi:docname="logo version 0.svg"
   inkscape:export-filename="D:\مشروع قريب\visual identity\mahaal visual identity\logo\logo version 0.png"
   inkscape:export-xdpi="272.12"
   inkscape:export-ydpi="272.12"
   xmlns:inkscape="http://www.inkscape.org/namespaces/inkscape"
   xmlns:sodipodi="http://sodipodi.sourceforge.net/DTD/sodipodi-0.dtd"
   xmlns="http://www.w3.org/2000/svg"
   xmlns:svg="http://www.w3.org/2000/svg"
   xmlns:rdf="http://www.w3.org/1999/02/22-rdf-syntax-ns#"
   xmlns:cc="http://creativecommons.org/ns#"
   xmlns:dc="http://purl.org/dc/elements/1.1/">
  <defs
     id="defs2">
    <rect
       x="177.40312"
       y="58.869791"
       width="21.100521"
       height="14.948958"
       id="rect5557" />
    <rect
       x="199.76042"
       y="109.00833"
       width="30.427084"
       height="23.415626"
       id="rect5531" />
    <rect
       x="136.26042"
       y="110.86042"
       width="37.835417"
       height="20.6375"
       id="rect5500" />
    <rect
       x="198.85091"
       y="71.313477"
       width="203.60514"
       height="15.709635"
       id="rect5420" />
    <rect
       x="153.37565"
       y="75.654297"
       width="52.709961"
       height="12.402344"
       id="rect5414" />
    <rect
       x="169.33333"
       y="14.363095"
       width="133.04762"
       height="33.261905"
       id="rect3465" />
    <rect
       x="202.02827"
       y="73.705357"
       width="41.199405"
       height="11.717262"
       id="rect3459" />
    <rect
       x="199.76042"
       y="109.00833"
       width="30.427084"
       height="23.415627"
       id="rect5531-0" />
  </defs>
  <sodipodi:namedview
     id="base"
     pagecolor="#ffffff"
     bordercolor="#666666"
     borderopacity="1.0"
     inkscape:pageopacity="0.0"
     inkscape:pageshadow="2"
     inkscape:zoom="4.0000001"
     inkscape:cx="474.87499"
     inkscape:cy="435.37499"
     inkscape:document-units="mm"
     inkscape:current-layer="layer4"
     inkscape:document-rotation="0"
     showgrid="false"
     inkscape:window-width="1366"
     inkscape:window-height="745"
     inkscape:window-x="-8"
     inkscape:window-y="-8"
     inkscape:window-maximized="1"
     inkscape:snap-bbox="false"
     inkscape:snap-midpoints="true"
     inkscape:snap-bbox-edge-midpoints="false"
     inkscape:snap-nodes="false"
     inkscape:snap-center="true"
     showguides="true"
     inkscape:guide-bbox="true"
     inkscape:snap-global="true"
     inkscape:pagecheckerboard="1">
    <sodipodi:guide
       position="116.79464,183.60714"
       orientation="0,-1"
       id="guide204" />
    <sodipodi:guide
       position="116.79464,183.60714"
       orientation="1,0"
       id="guide206" />
  </sodipodi:namedview>
  <metadata
     id="metadata5">
    <rdf:RDF>
      <cc:Work
         rdf:about="">
        <dc:format>image/svg+xml</dc:format>
        <dc:type
           rdf:resource="http://purl.org/dc/dcmitype/StillImage" />
      </cc:Work>
    </rdf:RDF>
  </metadata>
  <g
     inkscape:groupmode="layer"
     id="layer4"
     inkscape:label="mahaal_name"
     style="display:inline">
    <g
       id="g193"
       transform="matrix(1.0291102,0,0,1.0291102,87.809044,2.453668)"
       style="display:inline;fill:#0000ff"
       inkscape:export-filename="D:\مشروع قريب\visual identity\mahaal visual identity\logo\g193.png"
       inkscape:export-xdpi="272.12"
       inkscape:export-ydpi="272.12">
      <g
         aria-label="مَحال"
         transform="translate(-186.15246,-13.717541)"
         id="text5529-5"
         style="font-weight:bold;font-size:16.9333px;line-height:1.25;font-family:'Yu Gothic';-inkscape-font-specification:'Yu Gothic Bold';baseline-shift:baseline;white-space:pre;shape-inside:url(#rect5531-0);display:inline;vector-effect:none;stop-color:#000000">
        <path
           d="m 227.25984,123.59294 q -0.86816,0 -2.04225,-0.339 -1.03352,-0.29765 -1.819,-0.70279 -0.47956,0.71933 -1.18236,0.94257 -0.33899,0.10749 -0.92604,0.10749 h -1.6371 v -2.24896 h 1.6371 q 0.74414,0 1.18236,-0.1819 0.56224,-0.23151 0.77721,-0.80201 0.47129,-1.05007 1.20716,-1.72806 0.65319,-0.60358 1.10794,-0.60358 0.42168,0 1.04179,1.27331 0.65319,1.34771 0.65319,2.48046 z m -1.54615,-2.497 q 0,-0.1819 -0.35554,-0.62838 -0.39687,-0.4961 -0.68626,-0.4961 -0.32246,0 -0.5457,0.74414 0.42995,0.16537 0.65319,0.24805 0.66972,0.24804 0.75241,0.24804 0.1819,0 0.1819,-0.11575 z"
           style="baseline-shift:baseline;shape-inside:url(#rect5531-0);display:inline;opacity:1;vector-effect:none;stop-color:#000000;stop-opacity:1"
           id="path34249" />
        <path
           d="m 220.23186,123.60121 h -9.4423 v -2.24896 h 5.8787 q -1.00045,-1.03352 -1.85208,-1.48827 -0.75241,-0.40515 -1.47174,-0.40515 -0.21497,0 -0.39687,0.0248 -0.17364,0.0165 -0.51263,0.091 0.45475,-1.0418 1.00872,-1.53789 0.56224,-0.49609 1.2733,-0.49609 0.5457,0 1.05007,0.26458 0.50436,0.26458 1.13274,0.85163 0.49609,0.46302 1.4056,1.44693 0.62011,0.69453 0.94257,0.90124 0.33073,0.2067 0.98392,0.34726 z"
           style="baseline-shift:baseline;shape-inside:url(#rect5531-0);display:inline;opacity:1;vector-effect:none;stop-color:#000000;stop-opacity:1"
           id="path34253" />
        <path
           d="m 211.36834,123.60121 h -1.15755 q -0.96738,0 -1.39733,-0.79375 -0.47956,-0.87643 -0.47956,-2.95175 v -2.35644 q 0,-0.80202 -0.22324,-1.2485 -0.10749,-0.21498 -0.49609,-0.62012 l 0.89296,-2.06705 q 0.47956,0.66145 0.66973,1.30638 0.22324,0.7524 0.22324,1.91822 v 1.62884 q 0,1.72806 0.23151,2.39778 0.1819,0.53743 0.57878,0.53743 h 1.15755 z"
           style="baseline-shift:baseline;shape-inside:url(#rect5531-0);display:inline;opacity:1;vector-effect:none;stop-color:#000000;stop-opacity:1"
           id="path34255" />
        <path
           d="m 207.39959,123.3945 q 0,1.27331 -1.32291,2.25723 -1.32291,0.98391 -3.0179,0.98391 -1.41386,0 -2.21588,-0.71106 -0.79375,-0.71934 -0.79375,-2.00091 0,-1.19889 0.29766,-2.09186 0.339,-1.00872 1.32291,-2.47219 l 0.51263,0.34726 q -0.64492,0.96738 -0.91777,1.67845 -0.27285,0.71106 -0.27285,1.41386 0,0.75241 0.55397,1.16582 0.56224,0.40514 1.57923,0.40514 1.4552,0 2.36471,-0.56224 0.9095,-0.56223 0.9095,-1.47174 0,-0.15709 0,-0.24804 0,-0.091 0,-0.14056 0,-0.32246 -0.0579,-0.71107 -0.0496,-0.38861 -0.27285,-1.60403 -0.35553,-1.95957 -0.71106,-3.92741 l -0.41341,-0.29765 q 0,-0.81029 0.76067,-2.48046 l 0.38034,0.1819 q -0.0331,0.11575 -0.0331,0.26458 0,0.33073 0.33899,0.53743 0.50436,0.28112 0.95085,0.53744 -0.091,0.71106 -0.1819,1.01699 -0.0909,0.30592 -0.38034,0.91777 l -0.24805,-0.0992 q 0,0.12402 0.23151,1.41386 0.23978,1.28158 0.40514,2.21589 0.23151,1.33945 0.23151,1.62883 z"
           style="baseline-shift:baseline;shape-inside:url(#rect5531-0);display:inline;opacity:1;vector-effect:none;stop-color:#000000;stop-opacity:1"
           id="path34257" />
      </g>
      <g
         aria-label="َ"
         id="text5555-3-0"
         style="font-style:normal;font-variant:normal;font-weight:bold;font-stretch:normal;font-size:10.5833px;line-height:1.25;font-family:'Yu Gothic';-inkscape-font-specification:'Yu Gothic Bold';font-variant-ligatures:normal;font-variant-position:normal;font-variant-caps:normal;font-variant-numeric:normal;font-variant-alternates:normal;font-variant-east-asian:normal;font-feature-settings:normal;font-variation-settings:normal;text-indent:0;text-align:start;text-decoration:none;text-decoration-line:none;text-decoration-style:solid;text-decoration-color:#000000;letter-spacing:normal;word-spacing:normal;text-transform:none;writing-mode:lr-tb;direction:ltr;text-orientation:mixed;dominant-baseline:auto;baseline-shift:baseline;text-anchor:start;white-space:pre;shape-inside:url(#rect5557);shape-padding:0;shape-margin:0;inline-size:0;display:inline;vector-effect:none;fill:#0000ff;fill-opacity:1;stroke:none;stroke-width:1;stroke-linecap:butt;stroke-linejoin:miter;stroke-miterlimit:4;stroke-dasharray:none;stroke-dashoffset:0;stroke-opacity:1;stop-color:#000000"
         transform="matrix(3.9026256,0,0,3.9026256,-684.3993,-138.9647)"
         sodipodi:insensitive="true">
        <path
           id="path5567-2-1"
           d="m 185.82041,61.210076 c 0,0.158473 -0.0861,0.311779 -0.25838,0.459918 -0.31695,0.127469 -0.81994,0.330729 -1.50895,0.60978 0,-0.155029 0.0706,-0.299722 0.21187,-0.43408 0.29628,-0.120578 0.81477,-0.332451 1.55546,-0.635618 z"
           sodipodi:nodetypes="ccccc"
           style="fill:#0000ff;fill-opacity:1" />
      </g>
      <g
         aria-label="َ"
         id="text5555-3-2-0"
         style="font-style:normal;font-variant:normal;font-weight:bold;font-stretch:normal;font-size:10.5833px;line-height:1.25;font-family:'Yu Gothic';-inkscape-font-specification:'Yu Gothic Bold';font-variant-ligatures:normal;font-variant-position:normal;font-variant-caps:normal;font-variant-numeric:normal;font-variant-alternates:normal;font-variant-east-asian:normal;font-feature-settings:normal;font-variation-settings:normal;text-indent:0;text-align:start;text-decoration:none;text-decoration-line:none;text-decoration-style:solid;text-decoration-color:#000000;letter-spacing:normal;word-spacing:normal;text-transform:none;writing-mode:lr-tb;direction:ltr;text-orientation:mixed;dominant-baseline:auto;baseline-shift:baseline;text-anchor:start;white-space:pre;shape-inside:url(#rect5557);shape-padding:0;shape-margin:0;inline-size:0;display:inline;vector-effect:none;fill:#0000ff;fill-opacity:1;stroke:none;stroke-width:1;stroke-linecap:butt;stroke-linejoin:miter;stroke-miterlimit:4;stroke-dasharray:none;stroke-dashoffset:0;stroke-opacity:1;stop-color:#000000"
         transform="matrix(3.9026256,0,0,3.9026256,-692.62671,-140.01374)">
        <path
           id="path5567-2-4-6"
           d="m 185.82041,61.210076 c 0,0.158473 -0.0861,0.311779 -0.25838,0.459918 -0.31695,0.127469 -0.81994,0.330729 -1.50895,0.60978 0,-0.155029 0.0706,-0.299722 0.21187,-0.43408 0.29628,-0.120578 0.81477,-0.332451 1.55546,-0.635618 z"
           sodipodi:nodetypes="ccccc"
           style="fill:#0000ff;fill-opacity:1" />
      </g>
    </g>
  </g>
</svg>
